# xmcd CD database file
#
# Track frame offsets:
#	150
#	13195
#	26465
#	39057
#	51422
#	64760
#	78535
#	93717
#	106580
#	121810
#	137217
#	151477
#	164472
#	176430
#	189100
#	203175
#	216565
#
# Disc length: 3050 seconds
#
# Revision: 0
# Processed by: cddbd v1.5.1PL0 Copyright (c) Steve Scherf et al.
# Submitted via: CDex 1.51
#
DISCID=e40be811
DTITLE=Jay McShann - Jay McShann And The Blues Singers 1941-1949
DYEAR=2001
DGENRE=Blues
TTITLE0=Walter Brown, Confessin The Blues
TTITLE1=Walter Brown, Hootie Blues
TTITLE2=Walter Brown, Baby Heart Blues
TTITLE3=Walter Brown, Hooties Ignorant Oil
TTITLE4=Walter Brown, Lonely Boy Blues
TTITLE5=Walter Brown, The Jumpin Blues
TTITLE6=Bob Merrill, Wrong Neighborhood
TTITLE7=Julia Lee, Trouble In Mind
TTITLE8=Jimmy Witherspoon, Hard Working Mans Blues
TTITLE9=Numa Lee Davis, Walking
TTITLE10=Charles Waterford, Merry-Go-Round-Blues
TTITLE11=Charles Waterford, Crown Prince Boogie
TTITLE12=Jimmy Witherspoon, Voodoo Woman Blues
TTITLE13=Jimmy Witherspoon, Have You Ever Loved A Woman
TTITLE14=Jimmy Witherspoon, How Long Blues
TTITLE15=Jimmy Witherspoon, Moneys Getting Cheaper
TTITLE16=Lois Booker, Thinking About My Baby
EXTD=YEAR: 2001
EXTT0=
EXTT1=
EXTT2=
EXTT3=
EXTT4=
EXTT5=
EXTT6=
EXTT7=
EXTT8=
EXTT9=
EXTT10=
EXTT11=
EXTT12=
EXTT13=
EXTT14=
EXTT15=
EXTT16=
PLAYORDER=
